<svg xmlns="http://www.w3.org/2000/svg" version="1.1" xmlns:xlink="http://www.w3.org/1999/xlink" xmlns:svgjs="http://svgjs.dev/svgjs" width="1000" height="623" viewBox="0 0 1000 623"><g transform="matrix(1,0,0,1,-0.6060606060606233,0.2522267206477409)"><svg viewBox="0 0 396 247" data-background-color="#ffffff" preserveAspectRatio="xMidYMid meet" height="623" width="1000" xmlns="http://www.w3.org/2000/svg" xmlns:xlink="http://www.w3.org/1999/xlink"><g id="tight-bounds" transform="matrix(1,0,0,1,0.2400000000000091,-0.09999999999999432)"><svg viewBox="0 0 395.52 247.2" height="247.2" width="395.52"><g><svg></svg></g><g><svg viewBox="0 0 395.52 247.2" height="247.2" width="395.52"><mask id="17ba5cff-8eee-48cb-b826-21e92111df50"><rect width="640" height="400" fill="white"></rect><g transform="matrix(1,0,0,1,39.55199999999999,48.318252100840326)"><svg viewBox="0 0 316.416 150.56349579831934" height="150.56349579831934" width="316.416"><g><svg viewBox="0 0 316.416 150.56349579831934" height="150.56349579831934" width="316.416"><g><svg viewBox="0 0 316.416 150.56349579831934" height="150.56349579831934" width="316.416"><g><svg viewBox="0 0 316.416 150.56349579831934" height="150.56349579831934" width="316.416"><g id="SvgjsG1634"><svg viewBox="0 0 316.416 150.56349579831934" height="150.56349579831934" width="316.416" id="SvgjsSvg1633"><g><svg viewBox="0 0 316.416 150.56349579831934" height="150.56349579831934" width="316.416"><g transform="matrix(1,0,0,1,0,0)"><svg width="316.416" viewBox="0.75 -42.29999923706055 96.19999694824219 46.29999923706055" height="150.56349579831934" data-palette-color="#536878"><path d="M11.75 0L4.75 0 4.75-38.3 4.8-38.3 25.25-9.3 22.15-10 42.55-38.3 42.65-38.3 42.65 0 35.4 0 35.4-21.95 35.85-18.2 23.4-0.5 23.3-0.5 10.5-18.2 11.75-21.65 11.75 0ZM68.4 0L68.4-36.8 75.65-36.8 75.65-7 92.95-7 92.95 0 68.4 0Z" opacity="1" transform="matrix(1,0,0,1,0,0)" fill="black" class="wordmark-text-0" id="SvgjsPath1632" stroke-width="7" stroke="black" stroke-linejoin="round"></path></svg></g></svg></g></svg></g></svg></g></svg></g></svg></g></svg></g></mask><g transform="matrix(1,0,0,1,39.55199999999999,48.318252100840326)"><svg viewBox="0 0 316.416 150.56349579831934" height="150.56349579831934" width="316.416"><g><svg viewBox="0 0 316.416 150.56349579831934" height="150.56349579831934" width="316.416"><g><svg viewBox="0 0 316.416 150.56349579831934" height="150.56349579831934" width="316.416"><g><svg viewBox="0 0 316.416 150.56349579831934" height="150.56349579831934" width="316.416"><g id="textblocktransform"><svg viewBox="0 0 316.416 150.56349579831934" height="150.56349579831934" width="316.416" id="textblock"><g><svg viewBox="0 0 316.416 150.56349579831934" height="150.56349579831934" width="316.416"><g transform="matrix(1,0,0,1,0,0)"><svg width="316.416" viewBox="0.75 -42.29999923706055 96.19999694824219 46.29999923706055" height="150.56349579831934" data-palette-color="#536878"><path d="M11.75 0L4.75 0 4.75-38.3 4.8-38.3 25.25-9.3 22.15-10 42.55-38.3 42.65-38.3 42.65 0 35.4 0 35.4-21.95 35.85-18.2 23.4-0.5 23.3-0.5 10.5-18.2 11.75-21.65 11.75 0ZM68.4 0L68.4-36.8 75.65-36.8 75.65-7 92.95-7 92.95 0 68.4 0Z" opacity="1" transform="matrix(1,0,0,1,0,0)" fill="#536878" class="wordmark-text-0" data-fill-palette-color="primary" id="text-0"></path></svg></g></svg></g></svg></g></svg></g></svg></g></svg></g></svg></g><g mask="url(#17ba5cff-8eee-48cb-b826-21e92111df50)"><g transform="matrix(2.7914073354789313, 0, 0, 2.7914073354789313, 74.81809136148493, 1)"><svg xmlns="http://www.w3.org/2000/svg" xmlns:xlink="http://www.w3.org/1999/xlink" version="1.1" x="0" y="0" viewBox="5.958038806915283 6.079999923706055 88.08596801757812 87.84099578857422" enable-background="new 0 0 100 100" xml:space="preserve" height="87.84099578857422" width="88.08596801757812" class="icon-none" data-fill-palette-color="accent" id="none"><path d="M87.921 64.017c-1.854-1.63-17.356-7.408-25.238-10.109 3.012-3.726 4.971-8.288 5.784-11.438 1.18-1.17 2.043-3.33 2.118-5.423 0.064-1.801-0.465-3.362-1.501-4.468 0.006-0.536 3.317-7.547 0.336-15.516C66.111 8.218 59.389 6.08 55.611 6.08c-4.634 0-8.772 2.64-10.726 4.118-0.989-0.935-2.609-2.065-4.653-2.065-3.293 0-6.983 2.111-9.502 7.698-3.466 7.691-0.566 14.727 0.305 17.193-0.927 0.987-1.425 2.306-1.42 3.814 0.006 2.079 1.004 4.436 2.349 5.687 0.552 2.109 2.108 7.061 5.408 11.383-16.008 6.026-24.514 9.463-25.291 10.22-1.808 1.76-4.854 15.645-6.08 20.673-0.11 0.45-0.006 0.926 0.28 1.291 0.287 0.365 0.724 0.577 1.188 0.577h12.229l1.472 6.095c0.164 0.679 0.771 1.157 1.468 1.157H77.87c0.698 0 1.305-0.478 1.468-1.156l1.472-6.096h11.703c0.007 0 0.013 0 0.02 0 0.835 0 1.511-0.677 1.511-1.511C94.044 84.976 89.842 65.705 87.921 64.017zM34.775 41.32c-0.088-0.364-0.307-0.683-0.616-0.894-0.604-0.413-1.524-2.058-1.524-3.597 0-2.019 1.304-2.066 1.304-2.066 0.307-0.028 2.688-4.897 3.539-7.753 0.737-2.474 1.049-4.361 1.175-5.639 2.111 1.744 5.034 3.768 11.894 3.72 6.507-0.046 10.276-4.721 11.031-5.394 2.606 3.724 4.423 14.985 4.48 15.066 0.046 0.067 1.597 0.063 1.507 2.175-0.073 1.728-0.887 3.16-1.331 3.477-0.302 0.215-0.514 0.535-0.596 0.897-0.714 3.15-4.751 16.529-15.618 16.529C38.942 57.841 35.193 43.058 34.775 41.32zM76.681 90.899H23.826l-4.104-18.849h61.063L76.681 90.899z" fill="#5aa0db" data-fill-palette-color="accent"></path></svg></g></g></svg></g><defs></defs></svg><rect width="395.52" height="247.2" fill="none" stroke="none" visibility="hidden"></rect></g></svg></g></svg>