<svg xmlns="http://www.w3.org/2000/svg" version="1.1" xmlns:xlink="http://www.w3.org/1999/xlink" xmlns:svgjs="http://svgjs.dev/svgjs" width="1000" height="1000" viewBox="0 0 1000 1000"><rect width="1000" height="1000" fill="#000000"></rect><g transform="matrix(0.7,0,0,0.7,149.57575757575756,282.1265587044535)"><svg viewBox="0 0 396 247" data-background-color="#ffffff" preserveAspectRatio="xMidYMid meet" height="623" width="1000" xmlns="http://www.w3.org/2000/svg" xmlns:xlink="http://www.w3.org/1999/xlink"><defs></defs><g id="tight-bounds" transform="matrix(1,0,0,1,0.2400000000000091,-0.09999999999999432)"><svg viewBox="0 0 395.52 247.2" height="247.2" width="395.52"><g><svg></svg></g><g><svg viewBox="0 0 395.52 247.2" height="247.2" width="395.52"><g transform="matrix(1,0,0,1,92.1401542446043,47.215199999999996)"><svg viewBox="0 0 211.23969151079137 152.7696" height="152.7696" width="211.23969151079137"><g><svg viewBox="0 0 211.23969151079137 152.7696" height="152.7696" width="211.23969151079137"><g><svg viewBox="0 0 211.23969151079137 152.7696" height="152.7696" width="211.23969151079137"><g><svg viewBox="0 0 211.23969151079137 152.7696" height="152.7696" width="211.23969151079137"><g><svg viewBox="0 0 211.23969151079137 152.7696" height="152.7696" width="211.23969151079137"><g><svg viewBox="0 0 211.23969151079137 152.7696" height="152.7696" width="211.23969151079137"><g transform="matrix(1,0,0,1,0,0)"><svg width="211.23969151079137" viewBox="-1.399999976158142 -33.400001525878906 48.05000305175781 34.75" height="152.7696" data-palette-color="#656acd"><path d="M21.2-33.4Q22.55-33.4 23.58-33.1 24.6-32.8 24.7-32.2L24.7-32.2Q24.7-30.95 22.7-22.55 20.7-14.15 19-7.65L19-7.65Q18.05-4.05 15.33-1.73 12.6 0.6 8.15 0.6L8.15 0.6Q4.5 0.6 2.38-0.78 0.25-2.15-0.58-4.05-1.4-5.95-1.4-7.8L-1.4-7.8Q-1.4-10.7-0.68-12.03 0.05-13.35 1.85-13.35L1.85-13.35Q3.6-13.35 4.6-12.88 5.6-12.4 5.6-11.65L5.6-11.65Q5.6-11.15 4.8-10.05L4.8-10.05Q3.95-8.9 3.95-8.4L3.95-8.4Q4-6.05 5.03-5.15 6.05-4.25 7.9-4.25L7.9-4.25Q9.2-4.25 10.43-5.3 11.65-6.35 12.4-9.15L12.4-9.15 17.25-27.9Q14-27.35 11.9-26.9L11.9-26.9Q10.9-27.25 10.38-27.98 9.85-28.7 9.85-29.7L9.85-29.7Q9.85-31.15 11.8-32L11.8-32Q15.75-32.8 17.55-33.08 19.35-33.35 21.2-33.4L21.2-33.4ZM40.95-19.35Q40.35-19.65 39.45-19.65L39.45-19.65Q37.2-19.65 34.95-18.75 32.7-17.85 32.7-16.45L32.7-16.45Q32.7-15.45 33.6-14.85 34.5-14.25 36.45-13.5L36.45-13.5Q38.55-12.65 39.85-11.9 41.15-11.15 42.12-9.73 43.1-8.3 43.1-6.1L43.1-6.1Q43.1-2.5 40.12-0.58 37.15 1.35 32.15 1.35L32.15 1.35Q29.7 1.35 27.6 0.6 25.5-0.15 24.27-1.33 23.05-2.5 22.95-3.65L22.95-3.65Q22.95-4.85 24-5.63 25.05-6.4 26.95-6.65L26.95-6.65Q27-5.65 28-4.78 29-3.9 30.37-3.38 31.75-2.85 32.75-2.85L32.75-2.85Q34.45-2.85 35.85-3.78 37.25-4.7 37.25-5.95L37.25-5.95Q37.25-8.25 32.8-9.6L32.8-9.6Q29.95-10.45 28.42-12.3 26.9-14.15 26.9-16.2L26.9-16.2Q26.9-20.25 30.57-22.03 34.25-23.8 39.95-23.8L39.95-23.8Q43.15-23.8 44.9-23.05 46.65-22.3 46.65-20.45L46.65-20.45Q46.65-19.2 45.72-18.25 44.8-17.3 43.1-17.3L43.1-17.3Q41.6-17.3 41.17-17.53 40.75-17.75 40.7-18.3L40.7-18.3Q40.7-18.8 40.95-19.35L40.95-19.35Z" opacity="1" transform="matrix(1,0,0,1,0,0)" fill="#ffffff" class="undefined-text-0" data-fill-palette-color="primary" id="text-0"></path></svg></g></svg></g></svg></g></svg></g></svg></g></svg></g></svg></g><path d="M121.079 41.215L121.079 0 368.279 0 368.279 247.2 121.079 247.2 121.079 205.985 134.855 205.985 134.855 233.423 354.502 233.423 354.502 13.777 134.855 13.777 134.855 41.215Z" fill="#ffffff" stroke="transparent" data-fill-palette-color="primary"></path></svg></g></svg><rect width="395.52" height="247.2" fill="none" stroke="none" visibility="hidden"></rect></g></svg></g></svg>